<svg version="1.1" xmlns="http://www.w3.org/2000/svg" viewBox="0 0 92.55578927363274 21.718335948358686" width="185.11157854726548" height="43.43667189671737">
  <!-- svg-source:excalidraw -->
  
  <defs>
    <style class="style-fonts">
      @font-face {
        font-family: "Virgil";
        src: url("https://excalidraw.com/Virgil.woff2");
      }
      @font-face {
        font-family: "Cascadia";
        src: url("https://excalidraw.com/Cascadia.woff2");
      }
      @font-face {
        font-family: "Assistant";
        src: url("https://excalidraw.com/Assistant-Regular.woff2");
      }
    </style>
    
  </defs>
  <g stroke-linecap="round"><g transform="translate(82.54247040267103 11.829091765492137) rotate(0 -36.25 -0.625)"><path d="M0.01 -0.28 C-11.82 -0.31, -59.99 0.03, -71.91 -0.18 M-1.44 -1.48 C-13.31 -1.82, -60.83 -1.92, -72.54 -1.74" stroke="#1e1e1e" stroke-width="4" fill="none"></path></g><g transform="translate(82.54247040267103 11.829091765492137) rotate(0 -36.25 -0.625)"><path d="M-49.09 -10.4 C-54.88 -7.45, -57.94 -4.76, -72.54 -1.74 M-49.09 -10.4 C-55.34 -7.17, -61.78 -5.58, -72.54 -1.74" stroke="#1e1e1e" stroke-width="4" fill="none"></path></g><g transform="translate(82.54247040267103 11.829091765492137) rotate(0 -36.25 -0.625)"><path d="M-49.01 6.7 C-54.82 5.78, -57.89 4.59, -72.54 -1.74 M-49.01 6.7 C-55.12 5.22, -61.59 2.09, -72.54 -1.74" stroke="#1e1e1e" stroke-width="4" fill="none"></path></g></g><mask></mask></svg>