<svg version="1.1" xmlns="http://www.w3.org/2000/svg" viewBox="0 0 142.30769230769238 127.6923076923076" width="284.61538461538476" height="255.3846153846152">
  <!-- svg-source:excalidraw -->
  
  <defs>
    <style class="style-fonts">
      @font-face {
        font-family: "Virgil";
        src: url("https://excalidraw.com/Virgil.woff2");
      }
      @font-face {
        font-family: "Cascadia";
        src: url("https://excalidraw.com/Cascadia.woff2");
      }
      @font-face {
        font-family: "Assistant";
        src: url("https://excalidraw.com/Assistant-Regular.woff2");
      }
    </style>
    
  </defs>
  <g transform="translate(10 49.61538461538461) rotate(0 61.15384615384619 14.230769230769184)" stroke="none"><path fill="#2f9e44" d="M 7.90,-4.30 Q 7.90,-4.30 12.22,4.67 16.54,13.64 22.02,24.87 27.51,36.11 31.24,42.96 34.97,49.81 37.68,53.73 40.38,57.65 43.46,50.11 46.54,42.57 57.32,28.59 68.09,14.60 79.46,1.05 90.83,-12.48 98.05,-20.79 105.27,-29.10 108.38,-33.52 111.50,-37.95 113.74,-41.31 115.99,-44.68 116.96,-45.55 117.93,-46.43 119.14,-46.95 120.34,-47.47 121.65,-47.57 122.95,-47.68 124.22,-47.37 125.49,-47.05 126.60,-46.35 127.70,-45.64 128.53,-44.62 129.35,-43.60 129.80,-42.37 130.25,-41.15 130.29,-39.84 130.33,-38.53 129.94,-37.27 129.56,-36.02 128.80,-34.96 128.03,-33.89 126.97,-33.13 125.91,-32.36 124.66,-31.97 123.40,-31.59 122.09,-31.62 120.78,-31.66 119.55,-32.11 118.32,-32.56 117.30,-33.38 116.28,-34.20 115.57,-35.30 114.87,-36.40 114.55,-37.67 114.23,-38.95 114.34,-40.25 114.44,-41.56 114.96,-42.76 115.48,-43.96 116.35,-44.94 117.22,-45.92 118.36,-46.56 119.50,-47.21 120.79,-47.46 122.08,-47.71 123.37,-47.53 124.67,-47.35 125.85,-46.77 127.02,-46.19 127.95,-45.27 128.88,-44.34 129.46,-43.17 130.04,-41.99 130.22,-40.70 130.40,-39.40 130.15,-38.11 129.91,-36.82 129.26,-35.68 128.62,-34.54 128.62,-34.54 128.62,-34.54 125.82,-31.62 123.03,-28.70 119.32,-24.62 115.62,-20.54 108.88,-11.96 102.13,-3.39 91.57,10.30 81.01,24.00 70.89,38.73 60.78,53.46 56.32,59.77 51.86,66.08 44.89,70.10 37.93,74.12 32.48,69.80 27.04,65.47 24.89,61.10 22.74,56.73 18.68,49.80 14.63,42.87 8.55,32.08 2.47,21.30 -2.71,12.80 -7.90,4.30 -8.30,3.29 -8.70,2.28 -8.84,1.21 -8.99,0.13 -8.88,-0.94 -8.76,-2.02 -8.39,-3.04 -8.02,-4.05 -7.42,-4.96 -6.82,-5.86 -6.02,-6.59 -5.22,-7.32 -4.26,-7.84 -3.31,-8.36 -2.26,-8.63 -1.21,-8.91 -0.13,-8.92 0.94,-8.94 2.00,-8.70 3.06,-8.45 4.03,-7.96 4.99,-7.47 5.82,-6.77 6.64,-6.06 7.27,-5.18 7.90,-4.29 7.90,-4.30 L 7.90,-4.30 Z"></path></g></svg>